<svg enable-background="new 0 0 500 100" viewBox="0 0 500 100" xmlns="http://www.w3.org/2000/svg" xmlns:xlink="http://www.w3.org/1999/xlink"><clipPath id="a"><path d="m38.5 69.2v-9.1l15.1 15.1 15.1-15.1.1 9-15.1 15.3zm40.2-34 12 12-12 12.1zm-62.2 12 12.1-12v24.2zm12.3-12.1 24.8-24.8 24.9 24.9-24.9 24.7zm20.9-31.3-39.7 39.7s-4 4 0 8l39.9 39.9s4 4 8 0l39.6-39.6s4-4 0-8l-39.9-40s-1.7-1.7-4.1-1.7c-1.2-.1-2.5.4-3.8 1.7"/></clipPath><linearGradient id="b" gradientTransform="matrix(45.6224 26.3401 -26.3401 45.6224 8885.7461 -10008.457)" gradientUnits="userSpaceOnUse" x1="-50.9286" x2="-48.5662" y1="249.1588" y2="249.1588"><stop offset="0" stop-color="#527fe4"/><stop offset=".00269231" stop-color="#527fe4"/><stop offset="1" stop-color="#6861e6"/></linearGradient><g fill="#38383e"><path d="m120.2 56.3v-39.8h11.3l6 16.3c.4 1.1.7 2.3 1 3.5.4 1.2.6 2.4 1 3.5h.3c.4-1.2.7-2.4 1-3.5.4-1.2.6-2.4 1-3.5l5.7-16.3h11.3v39.8h-9.6v-11.8c0-1 .1-2.2.2-3.4s.2-2.5.4-3.7c.1-1.3.3-2.5.5-3.7s.3-2.4.5-3.3h-.3l-3.3 9.6-4.9 13.2h-5.6l-5.1-13.2-3.2-9.6h-.3c.1 1 .3 2.1.5 3.3s.3 2.5.5 3.7c.1 1.3.3 2.5.4 3.7s.2 2.4.2 3.4v11.7c-.1.1-9.5.1-9.5.1z"/><path d="m168.7 56.3 12.1-39.8h12.7l12.1 39.8h-11.1l-2-8.5h-11.1l-2 8.5zm15.3-19.4-.6 2.7h7.4l-.6-2.7c-.5-1.9-1-4-1.5-6.3s-1-4.4-1.5-6.4h-.2c-.5 2-.9 4.2-1.4 6.4-.6 2.4-1.1 4.4-1.6 6.3z"/><path d="m233.4 57c-2.7 0-5.4-.5-7.8-1.3s-4.5-2.1-6.4-3.8c-1.8-1.7-3.3-3.8-4.3-6.4-1-2.5-1.5-5.5-1.5-8.9s.5-6.3 1.5-8.9c1.1-2.5 2.5-4.7 4.3-6.6 1.8-1.8 3.9-3.1 6.4-4.1 2.4-.9 4.9-1.4 7.6-1.4 2.9 0 5.5.5 7.6 1.5s3.9 2.3 5.4 3.7l-5.5 6.7c-1-.8-2-1.5-3.1-2.1-1.1-.5-2.5-.8-4-.8-1.4 0-2.5.3-3.7.8s-2.2 1.3-3 2.3-1.5 2.2-2 3.6c-.5 1.5-.7 3-.7 4.8 0 3.7.8 6.6 2.5 8.6 1.6 2 4.3 3 7.9 3 .5 0 1.1-.1 1.6-.2s1-.3 1.4-.5v-5.5h-5.9v-8.6h15.2v18.9c-1.5 1.4-3.4 2.5-5.7 3.5-2.5 1.2-5.1 1.7-7.8 1.7z"/><path d="m260.6 56.3v-39.8h10.6v39.8z"/><path d="m303.2 57c-2.5 0-4.9-.5-7.3-1.3-2.3-.8-4.4-2.1-6.1-3.8s-3.1-3.8-4.1-6.4c-1-2.5-1.5-5.5-1.5-8.9s.5-6.3 1.5-8.9c1.1-2.5 2.5-4.7 4.3-6.6 1.8-1.8 3.8-3.1 6.1-4.1 2.3-.9 4.7-1.4 7.3-1.4s5 .5 7.1 1.5 3.8 2.3 5.3 3.7l-5.5 6.7c-1-.8-2-1.5-3-2.1-1-.5-2.3-.8-3.5-.8s-2.3.3-3.4.8c-1 .5-2 1.3-2.7 2.3-.8 1-1.5 2.2-1.9 3.6-.5 1.5-.7 3-.7 4.8 0 3.7.8 6.6 2.4 8.6 1.5 2 3.6 3 6.2 3 1.5 0 2.9-.4 4.1-1s2.3-1.5 3.1-2.5l5.5 6.6c-1.7 2-3.6 3.5-5.9 4.4-2.3 1.3-4.7 1.8-7.3 1.8z"/><path d="m327.9 56.3v-39.8h10.6v30.9h15v8.8h-25.6z"/><path d="m366.4 56.3v-39.8h10.6v39.8z"/><path d="m391.7 56.3v-39.8h10.7l8.8 17.7 3.8 8.9h.3c-.1-1.1-.3-2.2-.5-3.5s-.3-2.5-.5-3.9c-.1-1.4-.3-2.6-.4-4s-.2-2.6-.2-3.8v-11.4h10v39.8h-10.7l-8.8-17.8-3.8-8.9h-.3c.3 2.3.5 4.7.8 7.5.4 2.7.5 5.3.5 7.7v11.5z"/><path d="m439 56.3v-39.8h25.7v8.8h-15.2v6.2h13v8.8h-13v7.1h15.7v8.8h-26.2z"/></g><path clip-path="url(#a)" d="m29.9-39.3 112 64.7-64.3 111.3-112-64.7z" fill="url(#b)"/><g fill="#38383e"><path d="m121 86.6 6-17.8h2.5l6 17.8h-2.5l-1.7-5.5h-6.5l-1.7 5.5zm5.4-10-.8 2.7h5.4l-.8-2.7c-.4-1-.6-2-.9-3s-.5-2-.9-3h-.1c-.3 1-.5 2-.8 3-.5 1-.8 2-1.1 3z"/><path d="m150.7 86.9c-1.3 0-2.4-.3-3.5-.7-1.1-.5-2-1.1-2.7-1.9l1.4-1.5c.6.6 1.4 1.2 2.3 1.6.8.4 1.7.6 2.6.6 1.2 0 2.1-.3 2.7-.8s1-1.3 1-2.1c0-.5-.1-.8-.3-1.2-.2-.3-.4-.5-.6-.8-.3-.2-.5-.5-.9-.6s-.7-.4-1.2-.5l-2.5-1.1c-.5-.2-.8-.4-1.3-.6-.5-.3-.8-.5-1.2-.9s-.6-.8-.8-1.3-.4-1.1-.4-1.7.2-1.3.5-1.9.6-1.1 1.2-1.5c.5-.5 1.1-.7 1.7-1s1.5-.4 2.3-.4c1.1 0 2.1.2 3 .6.9.5 1.6.9 2.3 1.5l-1.2 1.5c-.5-.5-1.2-.9-1.8-1.3-.6-.3-1.4-.5-2.3-.5-1 0-1.8.3-2.4.7-.6.5-.9 1.1-.9 1.9 0 .5.1.8.3 1.1s.4.5.7.8c.3.2.6.5.9.6.4.2.7.4 1.1.5l2.5 1.1c.5.2 1 .5 1.5.7.5.3.8.6 1.2 1s.5.8.8 1.3.3 1.1.3 1.7c0 .7-.2 1.4-.5 2s-.7 1.2-1.2 1.6c-.5.5-1.2.8-1.9 1.1-1 .2-1.8.4-2.7.4z"/><path d="m161.1 92.1v-18.7h1.8l.2 1.5h.1c.6-.5 1.3-.9 2-1.3s1.5-.5 2.3-.5 1.6.2 2.3.5c.6.3 1.2.7 1.6 1.4.5.5.7 1.3 1 2.1.2.8.4 1.7.4 2.8s-.2 2.1-.5 3-.7 1.6-1.3 2.3c-.5.6-1.1 1.1-1.8 1.4s-1.5.5-2.2.5c-.6 0-1.2-.1-1.8-.4s-1.2-.6-1.8-1.1l.1 2.3v4.5zm5.5-7.1c.5 0 1-.1 1.5-.4s.8-.5 1.2-1 .6-1 .8-1.6.3-1.4.3-2.2c0-.7-.1-1.4-.2-2s-.4-1.1-.6-1.5c-.3-.5-.6-.7-1.1-1s-1-.4-1.5-.4-1.1.2-1.7.5c-.5.3-1.2.7-1.8 1.4v6.9c.6.5 1.2.9 1.7 1.1.4.1.9.2 1.4.2z"/><path d="m182.3 86.9c-.8 0-1.5-.2-2.4-.5-.7-.3-1.4-.7-1.9-1.4-.5-.5-1-1.3-1.4-2.2-.4-.8-.5-1.8-.5-2.9s.2-2.1.5-2.9c.4-.8.8-1.5 1.4-2.2.5-.6 1.2-1.1 1.9-1.4s1.5-.5 2.4-.5 1.5.2 2.4.5c.7.3 1.4.7 1.9 1.4.5.6 1 1.4 1.4 2.2s.5 1.8.5 2.9-.2 2.1-.5 2.9c-.4.8-.8 1.5-1.4 2.2-.5.5-1.2 1-1.9 1.4-.7.3-1.6.5-2.4.5zm0-1.9c.5 0 1.1-.1 1.5-.4s.9-.5 1.2-1c.4-.5.6-1 .8-1.5.2-.6.3-1.3.3-2.1 0-.7-.1-1.5-.3-2.1s-.5-1.2-.8-1.6c-.4-.5-.7-.8-1.2-1-.5-.3-1-.4-1.5-.4s-1.1.1-1.5.4c-.5.3-.9.6-1.2 1-.4.5-.6 1-.8 1.6s-.3 1.3-.3 2.1c0 .7.1 1.5.3 2.1s.5 1.2.8 1.5c.4.5.7.8 1.2 1 .4.3 1 .4 1.5.4z"/><path d="m193.1 86.6v-13.2h1.8l.2 2.4h.1c.5-.8 1-1.5 1.6-2s1.4-.7 2.1-.7c.5 0 1 .1 1.5.3l-.5 1.9c-.2-.1-.5-.1-.6-.2-.2 0-.4-.1-.6-.1-.5 0-1.2.2-1.7.6-.6.5-1.1 1.3-1.5 2.4v8.5h-2.3v.1z"/><path d="m207.7 86.9c-.7 0-1.3-.1-1.8-.4s-.9-.5-1.2-.9-.5-.8-.6-1.4c-.1-.5-.2-1.2-.2-1.8v-7.3h-1.9v-1.7l2.1-.1.3-3.7h1.9v3.7h3.5v1.8h-3.5v7.3c0 .8.2 1.5.5 1.9.3.5.8.6 1.5.6.3 0 .5 0 .7-.1s.5-.2.7-.3l.5 1.7c-.4.1-.7.3-1.2.4-.5.2-.9.3-1.3.3z"/><path d="m218.2 86.6 6-17.8h2.5l6 17.8h-2.5l-1.7-5.5h-6.5l-1.7 5.5zm5.3-10-.8 2.7h5.4l-.8-2.7c-.4-1-.6-2-.9-3s-.5-2-.9-3h-.1c-.3 1-.5 2-.8 3-.4 1-.7 2-1.1 3z"/><path d="m238.5 86.9c-.8 0-1.5-.3-1.8-.7-.4-.5-.5-1.3-.5-2.2v-16.8h2.2v16.8c0 .4.1.6.2.7.1.2.3.2.5.2h.2c.1 0 .2 0 .3-.1l.3 1.7c-.2.1-.3.1-.5.2-.3.1-.6.2-.9.2z"/><path d="m246.5 86.9c-.8 0-1.5-.3-1.8-.7-.4-.5-.5-1.3-.5-2.2v-16.8h2.2v16.8c0 .4.1.6.2.7.1.2.3.2.5.2h.2s.2 0 .3-.1l.3 1.7c-.2.1-.3.1-.5.2-.3.1-.6.2-.9.2z"/><path d="m253.3 70.6c-.5 0-.8-.1-1.1-.4s-.5-.6-.5-1c0-.5.2-.8.5-1 .3-.3.6-.4 1.1-.4s.8.1 1.1.4.5.6.5 1c0 .5-.2.7-.5 1s-.7.4-1.1.4zm-1.1 16v-13.2h2.2v13.2z"/><path d="m262.9 86.9c-1.1 0-2-.4-2.7-1s-1.1-1.5-1.1-2.7c0-1.5.6-2.5 1.9-3.4 1.3-.7 3.4-1.3 6.2-1.6 0-.5 0-.8-.1-1.2s-.2-.7-.5-1.1-.5-.5-.8-.7c-.4-.2-.8-.3-1.4-.3-.7 0-1.5.2-2.2.5s-1.3.6-1.8 1l-.9-1.5c.6-.4 1.4-.8 2.3-1.2s1.8-.5 2.9-.5c1.6 0 2.8.5 3.5 1.5s1.1 2.3 1.1 3.9v8.1h-1.8l-.2-1.5h-.1c-.6.5-1.3 1-2 1.4-.6.1-1.4.3-2.3.3zm.8-1.8c.6 0 1.3-.2 1.8-.5s1.2-.7 1.8-1.3v-3.6c-1.1.2-2 .3-2.8.5-.8.3-1.4.5-1.8.7s-.8.5-1 .9-.3.7-.3 1.2c0 .7.2 1.3.6 1.6s.9.5 1.7.5z"/><path d="m274.7 86.6v-13.2h1.8l.2 1.9h.1c.6-.6 1.3-1.2 2-1.5.7-.5 1.5-.6 2.5-.6 1.4 0 2.5.5 3.1 1.3.6.9 1 2.2 1 3.8v8.4h-2.2v-8.1c0-1.3-.2-2.2-.6-2.7s-1-.8-1.9-.8c-.7 0-1.3.2-1.8.5-.5.4-1.1.8-1.8 1.5v9.6c-.2-.1-2.4-.1-2.4-.1z"/><path d="m295.9 86.9c-.9 0-1.7-.2-2.5-.5-.7-.3-1.5-.7-2-1.4-.5-.5-1-1.3-1.3-2.2-.3-.8-.5-1.8-.5-2.9s.2-2.1.5-2.9c.4-.8.8-1.5 1.4-2.2.5-.6 1.3-1.1 2-1.4s1.5-.5 2.5-.5 1.6.2 2.2.5c.5.3 1.2.6 1.6 1.1l-1.2 1.5c-.4-.4-.8-.6-1.2-.8s-.9-.4-1.5-.4-1.2.1-1.6.4c-.5.3-.9.6-1.3 1-.4.5-.6 1-.8 1.6s-.3 1.3-.3 2.1c0 .7.1 1.5.3 2.1s.5 1.2.8 1.5c.4.5.8.8 1.3 1 .5.3 1.1.4 1.6.4.6 0 1.2-.1 1.7-.4s1-.5 1.4-.9l1 1.5c-.6.5-1.3.9-2 1.3-.6.3-1.4.5-2.1.5z"/><path d="m308.9 86.9c-.9 0-1.7-.2-2.5-.5-.7-.3-1.5-.7-2-1.4-.5-.5-1-1.3-1.4-2.2-.4-.8-.5-1.8-.5-2.9s.2-2.1.5-2.9.8-1.5 1.4-2.2c.5-.6 1.2-1.1 1.9-1.4s1.5-.5 2.2-.5c.8 0 1.5.2 2.3.5.6.3 1.2.7 1.6 1.3.5.5.8 1.2 1 1.9.3.7.4 1.6.4 2.5v.7c0 .2 0 .5-.1.5h-9c.1 1.5.5 2.5 1.3 3.4.8.8 1.8 1.3 3.1 1.3.6 0 1.2-.1 1.7-.3s1-.5 1.5-.7l.8 1.5c-.5.4-1.2.6-1.9.9-.6.3-1.4.5-2.3.5zm-4.2-8h7.1c0-1.4-.3-2.4-.8-3.1s-1.4-1-2.4-1c-.5 0-.9.1-1.4.3s-.8.5-1.2.8-.6.8-.8 1.3c-.2.4-.4 1.1-.5 1.7z"/><path d="m331.5 86.9c-1.1 0-2.2-.2-3.1-.6-.9-.5-1.7-1-2.5-1.8-.7-.8-1.3-1.7-1.6-2.9-.4-1.2-.5-2.5-.5-3.9 0-1.5.2-2.7.6-3.8.4-1.2.9-2.1 1.6-2.9s1.5-1.4 2.5-1.8c1-.5 2-.6 3.2-.6 1.1 0 2 .2 2.8.6.8.5 1.5 1 2 1.5l-1.2 1.5c-.5-.5-1-.9-1.6-1.2s-1.3-.5-2-.5c-.8 0-1.6.2-2.3.5-.7.4-1.3.8-1.7 1.5-.5.6-.9 1.4-1.1 2.3-.3.9-.4 1.9-.4 3s.1 2.1.4 3 .6 1.6 1.1 2.3c.5.6 1 1.1 1.7 1.5.6.4 1.5.5 2.3.5.9 0 1.6-.2 2.3-.5s1.3-.8 1.8-1.5l1.3 1.5c-.7.8-1.5 1.5-2.4 1.9-1 .2-2 .4-3.2.4z"/><path d="m346.3 86.9c-.8 0-1.5-.2-2.4-.5-.7-.3-1.4-.7-1.9-1.4-.5-.5-1-1.3-1.4-2.2-.4-.8-.5-1.8-.5-2.9s.2-2.1.5-2.9.8-1.5 1.4-2.2c.5-.6 1.2-1.1 1.9-1.4s1.5-.5 2.4-.5c.8 0 1.5.2 2.4.5.8.3 1.4.7 1.9 1.4.5.6 1 1.4 1.4 2.2s.5 1.8.5 2.9-.2 2.1-.5 2.9c-.4.8-.8 1.5-1.4 2.2-.5.5-1.2 1-1.9 1.4-.8.3-1.5.5-2.4.5zm0-1.9c.5 0 1.1-.1 1.5-.4.5-.3.9-.5 1.2-1 .4-.5.6-1 .8-1.5.2-.6.3-1.3.3-2.1 0-.7-.1-1.5-.3-2.1s-.5-1.2-.8-1.6c-.4-.5-.7-.8-1.2-1s-1-.4-1.5-.4-1.1.1-1.5.4c-.5.3-.9.6-1.2 1-.4.5-.6 1-.8 1.6s-.3 1.3-.3 2.1c0 .7.1 1.5.3 2.1s.5 1.2.8 1.5c.4.5.7.8 1.2 1s.9.4 1.5.4z"/><path d="m357 86.6v-13.2h1.8l.2 1.9h.1c.5-.6 1.2-1.2 1.9-1.5.6-.5 1.5-.6 2.2-.6 1 0 1.8.2 2.4.6.5.5 1 1.1 1.3 1.8.7-.7 1.4-1.4 2.1-1.8s1.5-.7 2.3-.7c1.4 0 2.4.5 3 1.3.6.9 1 2.2 1 3.8v8.4h-2.3v-8.1c0-1.3-.2-2.2-.6-2.7s-1-.8-1.8-.8c-1 0-2.1.6-3.3 2v9.6h-2.2v-8.1c0-1.3-.2-2.2-.6-2.7s-1-.8-1.9-.8c-1 0-2.1.6-3.3 2v9.6z"/><path d="m380.6 92.1v-18.7h1.8l.2 1.5h.1c.6-.5 1.3-.9 2-1.3s1.5-.5 2.3-.5 1.6.2 2.3.5c.6.3 1.2.7 1.6 1.4.5.5.7 1.3 1 2.1.2.8.4 1.7.4 2.8s-.2 2.1-.5 3-.7 1.6-1.3 2.3c-.5.6-1.1 1.1-1.8 1.4s-1.5.5-2.2.5c-.6 0-1.2-.1-1.8-.4s-1.2-.6-1.8-1.1l.1 2.3v4.5zm5.4-7.1c.5 0 1-.1 1.5-.4s.8-.5 1.2-1 .6-1 .8-1.6.3-1.4.3-2.2c0-.7-.1-1.4-.2-2s-.4-1.1-.6-1.5c-.3-.5-.6-.7-1.1-1s-1-.4-1.5-.4-1.1.2-1.7.5-1.2.7-1.8 1.4v6.9c.6.5 1.2.9 1.7 1.1.5.1 1 .2 1.4.2z"/><path d="m399.4 86.9c-1.1 0-2-.4-2.7-1s-1.1-1.5-1.1-2.7c0-1.5.6-2.5 1.9-3.4 1.3-.7 3.4-1.3 6.2-1.6 0-.5 0-.8-.1-1.2s-.2-.7-.5-1.1-.5-.5-.8-.7c-.4-.2-.8-.3-1.4-.3-.7 0-1.5.2-2.2.5s-1.3.6-1.8 1l-.9-1.5c.6-.4 1.4-.8 2.3-1.2s1.8-.5 2.9-.5c1.6 0 2.8.5 3.5 1.5s1.1 2.3 1.1 3.9v8.1h-1.8l-.2-1.5h-.1c-.6.5-1.3 1-2 1.4-.7.1-1.5.3-2.3.3zm.6-1.8c.6 0 1.3-.2 1.8-.5s1.2-.7 1.8-1.3v-3.6c-1.1.2-2 .3-2.8.5-.8.3-1.4.5-1.8.7s-.8.5-1 .9-.3.7-.3 1.2c0 .7.2 1.3.6 1.6.5.3 1.1.5 1.7.5z"/><path d="m411.1 86.6v-13.2h1.8l.2 1.9h.1c.6-.6 1.3-1.2 2-1.5.7-.5 1.5-.6 2.5-.6 1.4 0 2.5.5 3.1 1.3.6.9 1 2.2 1 3.8v8.4h-2.4v-8.1c0-1.3-.2-2.2-.6-2.7s-1-.8-1.9-.8c-.7 0-1.3.2-1.8.5-.5.4-1.1.8-1.8 1.5v9.6c-.1-.1-2.2-.1-2.2-.1z"/><path d="m427.2 92.2c-.3 0-.5 0-.8-.1-.3 0-.5-.1-.7-.2l.5-1.7c.2 0 .3.1.5.1s.4.1.5.1c.7 0 1.4-.3 1.8-.8.5-.5.8-1.2 1.1-2l.3-1-5.2-13.2h2.3l2.7 7.3c.2.5.5 1.2.6 1.8.2.6.5 1.3.6 1.9h.1c.2-.6.4-1.2.5-1.9.2-.6.4-1.3.5-1.8l2.4-7.3h2.2l-5 14.3c-.3.6-.5 1.3-.8 1.8s-.6 1-1 1.5-.8.7-1.4 1c-.4.1-1 .2-1.7.2z"/></g></svg>