<?xml version="1.0" encoding="UTF-8"?>
<svg id="Ebene_1" data-name="Ebene 1" xmlns="http://www.w3.org/2000/svg" viewBox="0 0 387.5 351.11">
  <path d="m0,298.84C0,294.81,0,290.78,0,286.74c2.8-7.89,4.46-16.43,8.56-23.58C53.19,185.28,98.19,107.6,143.11,29.88c7.11-12.31,17-21.54,30.57-26.25,27.9-9.69,55.54.34,70.51,26.15,45.1,77.76,90.02,155.63,134.82,233.56,11.86,20.63,11.28,41.51-1.67,61.44-11.76,18.1-29.09,26.34-50.6,26.33-88.86-.05-177.71-.02-266.57-.03-2.27,0-4.55,0-6.8-.22-21.17-2.09-37.09-12.37-46.68-31.36C3.47,313.12,2.18,305.76,0,298.84Zm214.86-165.76s.09,0,.13,0c0-3.27.22-6.55-.04-9.79-.88-10.77-8.13-18.4-18.8-20.04-9.32-1.43-19.39,4.27-22.54,13.98-1.65,5.09-1.89,10.89-1.63,16.31.94,20.26,2.33,40.51,3.58,60.76.67,10.94,1.12,21.9,2.18,32.81.81,8.28,7.5,13.67,15.85,13.66,8.18,0,14.91-5.66,15.94-13.72.48-3.73.35-7.54.57-11.31,1.57-27.55,3.17-55.11,4.75-82.66Zm-.1,144.75c-.05-12.37-9.29-22.01-21.11-22.03-11.75-.01-21.7,10.04-21.55,21.75.15,11.74,9.82,21.34,21.5,21.35,11.63,0,21.21-9.53,21.17-21.08Z"/>
</svg>