<svg enable-background="new 0 0 326.6 326.6" viewBox="0 0 326.6 326.6" xmlns="http://www.w3.org/2000/svg" xmlns:xlink="http://www.w3.org/1999/xlink"><clipPath id="a"><path d="m108.7 240.7v-32.6l54.1 54.6 54.4-54.4.2 32.1-54.5 54.5zm143.9-121.8 43.2 43.2-43.2 43.2zm-222.5 43.2 43.5-43.5v86.8zm43.7-43.9 89-89 89.1 89.1-89.3 88.9zm88.4-118.2c-4.2 0-8.9 1.6-13.7 6.3l-142.2 142.3s-6.3 6.3-6.3 14.7v.2c0 4.2 1.6 8.9 6.3 13.7l143.1 142.9s6.3 6.3 14.7 6.3h.2c4.2 0 8.9-1.6 13.7-6.3l142-142.1s6.3-6.3 6.3-14.7v-.2c0-4.2-1.6-8.9-6.3-13.7l-143-143s-6.3-6.3-14.7-6.3h-.1z"/></clipPath><path d="m108.7 240.7v-32.6l54.1 54.6 54.4-54.4.2 32.1-54.5 54.5zm143.9-121.8 43.2 43.2-43.2 43.2zm-222.5 43.2 43.5-43.5v86.8zm43.7-43.9 89-89 89.1 89.1-89.3 88.9zm88.4-118.2c-4.2 0-8.9 1.6-13.7 6.3l-142.2 142.3s-6.3 6.3-6.3 14.7v.2c0 4.2 1.6 8.9 6.3 13.7l143.1 142.9s6.3 6.3 14.7 6.3h.2c4.2 0 8.9-1.6 13.7-6.3l142-142.1s6.3-6.3 6.3-14.7v-.2c0-4.2-1.6-8.9-6.3-13.7l-143-143s-6.3-6.3-14.7-6.3h-.1z"/><path d="m108.7 240.7v-32.6l54.1 54.6 54.4-54.4.2 32.1-54.5 54.5zm143.9-121.8 43.2 43.2-43.2 43.2zm-222.5 43.2 43.5-43.5v86.8zm43.7-43.9 89-89 89.1 89.1-89.3 88.9zm88.4-118.2c-4.2 0-8.9 1.6-13.7 6.3l-142.2 142.3s-6.3 6.3-6.3 14.7v.2c0 4.2 1.6 8.9 6.3 13.7l143.1 142.9s6.3 6.3 14.7 6.3h.2c4.2 0 8.9-1.6 13.7-6.3l142-142.1s6.3-6.3 6.3-14.7v-.2c0-4.2-1.6-8.9-6.3-13.7l-143-143s-6.3-6.3-14.7-6.3h-.1z"/><g clip-path="url(#a)"><path d="m15.3 15.4h296v296h-296z" transform="matrix(.5 -.866 .866 .5 -59.8279 223.1233)"/></g></svg>