<?xml version="1.0" encoding="utf-8"?>
<!-- Generator: Adobe Illustrator 27.5.0, SVG Export Plug-In . SVG Version: 6.00 Build 0)  -->
<svg version="1.1" id="Ebene_1" xmlns="http://www.w3.org/2000/svg" xmlns:xlink="http://www.w3.org/1999/xlink" x="0px" y="0px"
	 viewBox="0 0 32.8 27.5" style="enable-background:new 0 0 32.8 27.5;" xml:space="preserve">
<style type="text/css">
	.st0{fill:#FCFCFC;}
</style>
<g>
	<path class="st0" d="M32.4,4.7l-4.2-4.2c-0.6-0.6-1.5-0.6-2.1,0l-9.6,9.6L11,15.5l-4.2-4.2c-0.6-0.6-1.5-0.6-2.1,0l-4.2,4.2
		c-0.6,0.6-0.6,1.5,0,2.1l9.5,9.5c0.6,0.6,1.5,0.6,2.1,0l4.4-4.4l16-16c0.3-0.3,0.4-0.7,0.4-1.1C32.8,5.3,32.7,4.9,32.4,4.7z"/>
	<path class="st0" d="M9.9,27.1c0.6,0.6,1.5,0.6,2.1,0l4.4-4.4V10.1L11,15.5l-4.2-4.2c-0.3-0.3-0.7-0.4-1.1-0.4s-0.8,0.2-1.1,0.4
		l-4.2,4.2c-0.6,0.6-0.6,1.5,0,2.1L9.9,27.1z"/>
</g>
</svg>
