<svg enable-background="new 0 0 512 512" viewBox="0 0 512 512" xmlns="http://www.w3.org/2000/svg"><g fill="#fff"><path d="m176 381.2c-2.8 0-5.5-.7-8-2.1-5-2.9-8-8.1-8-13.9v-221.2c0-5.7 3-11 8-13.8 5-2.9 11-2.9 16 0l192 110.5c5 2.8 8 8.1 8 13.9s-3 11-8 13.9l-192 110.5c-2.5 1.5-5.3 2.2-8 2.2zm16-209.5v165.8l143.9-83s-143.9-82.8-143.9-82.8z"/><path d="m256 512c-141.2 0-256-114.8-256-256s114.8-256 256-256 256 114.8 256 256-114.8 256-256 256zm0-480c-123.5 0-224 100.5-224 224s100.5 224 224 224 224-100.5 224-224-100.5-224-224-224z"/></g></svg>