<svg enable-background="new 0 0 512 512" viewBox="0 0 512 512" xmlns="http://www.w3.org/2000/svg"><g opacity=".5"><path d="m239 385c9.4 9.4 24.6 9.4 33.9 0l90.5-90.5c9.4-9.4 9.4-24.6 0-33.9-9.4-9.4-24.6-9.4-33.9 0l-49.5 49.5v-262.1c0-13.3-10.7-24-24-24s-24 10.7-24 24v262.1l-49.5-49.5c-9.4-9.4-24.6-9.4-33.9 0-9.4 9.4-9.4 24.6 0 33.9z"/><path d="m464 232c-13.3 0-24 10.7-24 24v184h-368v-184c0-13.3-10.7-24-24-24s-24 10.7-24 24v192c0 22.1 17.9 40 40 40h384c22.1 0 40-17.9 40-40v-192c0-13.3-10.7-24-24-24z"/></g></svg>