<?xml version="1.0" encoding="UTF-8"?>
<svg id="Ebene_1" data-name="Ebene 1" xmlns="http://www.w3.org/2000/svg" viewBox="0 0 383.27 383.27">
  <defs>
    <style>
      .cls-1 {
        fill: #fff;
      }
    </style>
  </defs>
  <path class="cls-1" d="m339.5,73.17c.38.23.75.45,1.13.68,0,1.34,0,2.68,0,4.02,0,23.7-.08,47.41.04,71.11.06,12.09,9.68,21.47,21.45,21.35,11.7-.12,21.06-9.39,21.09-21.32.08-42.54.08-85.08,0-127.63-.02-12.13-9.26-21.19-21.41-21.35-6.11-.08-12.23-.02-18.34-.02-36.18,0-72.36-.02-108.54.01-9.79,0-17.74,5.51-20.79,14.2-4.92,14.05,5.34,28.31,20.6,28.37,23.7.09,47.41.03,71.11.03,1.26,0,2.53,0,3.79,0,.13.36.27.72.4,1.09-1.42,1.22-2.93,2.35-4.25,3.67-56.47,56.44-112.93,112.9-169.38,169.37-1.41,1.41-2.84,2.82-4.07,4.38-6.64,8.43-5.95,20.36,1.57,27.99,8.75,8.88,21.98,8.39,31.59-1.22,56.82-56.81,113.63-113.62,170.42-170.45,1.31-1.31,2.4-2.85,3.59-4.29Z"/>
  <path d="m0,99.58c.57-2.66,1.09-5.33,1.72-7.97,6.74-28.35,32.06-48.7,61.32-48.91,28.44-.2,56.89-.1,85.33-.04,12.51.03,21.91,9.22,21.95,21.19.04,11.9-9.36,21.31-21.85,21.37-27.45.13-54.9.42-82.33-.11-13.88-.27-23.72,10.14-23.66,23.47.31,69.61.14,139.22.15,208.84,0,14.62,8.62,23.25,23.24,23.25,69.61.01,139.23.01,208.84,0,14.85,0,23.31-8.56,23.32-23.53.01-27.32-.05-54.64.03-81.96.04-14.14,11.12-23.83,24.73-21.88,10.1,1.44,17.77,10.26,17.81,20.88.09,22.46.18,44.91-.03,67.37-.1,10.44.29,21.1-1.6,31.28-4.9,26.3-26.65,46.03-53.19,49.8-.71.1-1.38.44-2.07.67H56.89c-.69-.23-1.36-.57-2.07-.67-25.54-3.67-46.25-22.17-52.75-47.2C1.29,332.42.69,329.39,0,326.38c0-75.6,0-151.2,0-226.81Z"/>
  <path class="cls-1" d="m0,326.38c.69,3.01,1.29,6.03,2.07,9.02,6.5,25.04,27.21,43.54,52.75,47.2.71.1,1.38.44,2.07.67H0C0,364.31,0,345.35,0,326.38Z"/>
  <path d="m339.5,73.17c-1.19,1.43-2.28,2.97-3.59,4.29-56.79,56.83-113.6,113.64-170.42,170.45-9.61,9.61-22.84,10.1-31.59,1.22-7.52-7.63-8.22-19.56-1.57-27.99,1.23-1.56,2.66-2.97,4.07-4.38,56.45-56.46,112.91-112.92,169.38-169.37,1.32-1.32,2.83-2.45,4.25-3.67-.13-.36-.27-.72-.4-1.09-1.26,0-2.53,0-3.79,0-23.7,0-47.41.07-71.11-.03-15.25-.06-25.52-14.32-20.6-28.37C217.18,5.54,225.13.04,234.93.04c36.18-.03,72.36-.01,108.54-.01,6.11,0,12.23-.06,18.34.02,12.15.16,21.38,9.22,21.41,21.35.08,42.54.08,85.08,0,127.63-.02,11.92-9.39,21.19-21.09,21.32-11.77.12-21.38-9.26-21.45-21.35-.13-23.7-.04-47.41-.04-71.11,0-1.34,0-2.68,0-4.02-.38-.23-.75-.45-1.13-.68Z"/>
</svg>