<svg enable-background="new 0 0 512 512" viewBox="0 0 512 512" xmlns="http://www.w3.org/2000/svg"><g fill="#fff"><path d="m297.3 508.7c-2.1.3-4.3.7-6.4 1 2.1-.4 4.2-.7 6.4-1z"/><path d="m302.4 507.8c-1 .2-2 .4-3.1.5 1.1-.1 2.1-.3 3.1-.5z"/><path d="m285.1 510.3c-2.5.3-5 .5-7.5.7 2.5-.1 5-.4 7.5-.7z"/><path d="m290.1 509.7c-1.2.2-2.4.3-3.6.4 1.1-.1 2.4-.2 3.6-.4z"/><path d="m309.4 506.4c-.9.2-1.8.4-2.7.6.9-.2 1.8-.4 2.7-.6z"/><path d="m326.7 502.1c-.7.2-1.5.4-2.2.6.7-.2 1.4-.4 2.2-.6z"/><path d="m321.4 503.5c-.8.2-1.6.4-2.4.6.9-.1 1.6-.3 2.4-.6z"/><path d="m314.6 505.3c-.8.2-1.7.4-2.5.6.8-.3 1.7-.5 2.5-.6z"/><path d="m277.5 511.1c-1.3.1-2.7.2-4 .3 1.3-.1 2.7-.2 4-.3z"/><path d="m512 256c0-141.4-114.6-256-256-256s-256 114.6-256 256 114.6 256 256 256c1.5 0 3 0 4.5-.1v-199.2h-55v-64.1h55v-47.2c0-54.7 33.4-84.5 82.2-84.5 23.4 0 43.5 1.7 49.3 2.5v57.2h-33.6c-26.5 0-31.7 12.6-31.7 31.1v40.8h63.5l-8.3 64.1h-55.2v189.5c107-30.7 185.3-129.2 185.3-246.1z"/><path d="m272.9 511.4c-2.7.2-5.3.3-8 .4 2.7-.1 5.3-.2 8-.4z"/><path d="m264.8 511.8c-1.4 0-2.8.1-4.2.1 1.3 0 2.7 0 4.2-.1z"/></g></svg>