<svg enable-background="new 0 0 480 480" viewBox="0 0 480 480" xmlns="http://www.w3.org/2000/svg"><g fill="#4977dd"><path d="m475.9 229.3-144-160c-3.1-3.4-7.4-5.3-11.9-5.3h-96c-6.3 0-12 3.7-14.6 9.5s-1.5 12.5 2.7 17.2l134.4 149.3-134.4 149.3c-4.2 4.7-5.3 11.5-2.7 17.2 2.6 5.8 8.3 9.5 14.6 9.5h96c4.5 0 8.8-2 11.9-5.3l144-160c5.5-6 5.5-15.3 0-21.4z"/><path d="m267.9 229.3-144-160c-3.1-3.4-7.4-5.3-11.9-5.3h-96c-6.3 0-12 3.7-14.6 9.5s-1.5 12.5 2.7 17.2l134.4 149.3-134.4 149.3c-4.2 4.7-5.3 11.5-2.7 17.2 2.6 5.8 8.3 9.5 14.6 9.5h96c4.5 0 8.8-2 11.9-5.3l144-160c5.5-6 5.5-15.3 0-21.4z"/></g></svg>