<svg enable-background="new 0 0 512 512" viewBox="0 0 512 512" xmlns="http://www.w3.org/2000/svg"><g fill="#fff"><path d="m368 384.3h-224c-32.4 0-58.7-26.3-58.7-58.7v-138.6c0-32.4 26.3-58.7 58.7-58.7h224c32.4 0 58.7 26.3 58.7 58.7v138.7c0 32.3-26.3 58.6-58.7 58.6zm-224-224c-14.7 0-26.7 12-26.7 26.7v138.7c0 14.7 12 26.7 26.7 26.7h224c14.7 0 26.7-12 26.7-26.7v-138.7c0-14.7-12-26.7-26.7-26.7z"/><path d="m16 213.7c-8.8 0-16-7.2-16-16v-96c0-32.4 26.3-58.7 58.7-58.7h96c8.8 0 16 7.2 16 16s-7.2 16-16 16h-96c-14.7 0-26.7 12-26.7 26.7v96c0 8.8-7.2 16-16 16z"/><path d="m496 213.7c-8.8 0-16-7.2-16-16v-96c0-14.7-12-26.7-26.7-26.7h-96c-8.8 0-16-7.2-16-16s7.2-16 16-16h96c32.4 0 58.7 26.3 58.7 58.7v96c0 8.8-7.2 16-16 16z"/><path d="m453.3 469.7h-96c-8.8 0-16-7.2-16-16s7.2-16 16-16h96c14.7 0 26.7-12 26.7-26.7v-96c0-8.8 7.2-16 16-16s16 7.2 16 16v96c0 32.4-26.3 58.7-58.7 58.7z"/><path d="m154.7 469.7h-96c-32.4 0-58.7-26.3-58.7-58.7v-96c0-8.8 7.2-16 16-16s16 7.2 16 16v96c0 14.7 12 26.7 26.7 26.7h96c8.8 0 16 7.2 16 16s-7.2 16-16 16z"/></g></svg>