<?xml version="1.0" encoding="UTF-8"?>
<svg id="Ebene_1" data-name="Ebene 1" xmlns="http://www.w3.org/2000/svg" viewBox="0 0 408.97 408.91">
  <defs>
    <style>
      .cls-1 {
        fill: #4977dd;
      }
    </style>
  </defs>
  <path class="cls-1" d="m216.43,408.91h-23.96c-1.03-.23-2.04-.59-3.08-.66-28.67-1.94-55.82-9.49-80.94-23.34C50.84,353.12,15.62,304.79,3.22,240.08,1.73,232.29,1.05,224.35,0,216.47c0-7.99,0-15.97,0-23.96.23-1.15.6-2.29.68-3.45,2-28.53,9.37-55.66,23.35-80.54C61.69,41.53,119.16,5.19,195.89.39c33.08-2.07,65.13,4.15,94.85,18.92,72.87,36.23,112.48,95.36,117.81,176.57,2.44,37.15-5.9,72.6-23.98,105.19-31.83,57.41-80.24,92.46-144.89,104.67-7.68,1.45-15.5,2.13-23.25,3.17Zm-120.6-216.56c2.69-25.42,5.32-50.33,7.93-75.05-15.07-5.7-30.53-11.55-46.27-17.51-19.6,27.6-30.68,58.37-32.98,92.55h71.33Zm217.2-.04h71.39c-2.41-34.28-13.46-65.1-33.02-92.49-15.93,6.02-31.41,11.86-46.25,17.46,2.62,24.95,5.24,49.86,7.88,75.02ZM24.48,216.68c2.38,34.27,13.46,65.09,33.01,92.49,15.91-6.01,31.39-11.85,46.26-17.47-2.62-24.92-5.24-49.84-7.89-75.02H24.48Zm280.65,75.01c15,5.68,30.47,11.53,46.28,17.52,19.55-27.55,30.67-58.33,32.98-92.47h-71.34c-2.67,25.25-5.3,50.16-7.91,74.95ZM127.87,124.07c-4.03,22.18-6.49,45.04-6.96,68.26h71.3v-60.2c-21.51-2.7-42.68-5.35-64.34-8.06Zm160.16,68.31c-.61-23.48-2.91-46.37-7.04-68.31-21.67,2.71-42.95,5.37-64.25,8.03v60.28h71.29Zm-167.16,24.21c.6,23.48,2.91,46.37,7.03,68.32,21.65-2.71,42.93-5.37,64.26-8.04v-60.28h-71.29Zm160.12,68.33c4.11-21.98,6.44-44.88,7.03-68.21h-71.28v60.15c21.46,2.69,42.51,5.33,64.25,8.06ZM132.75,99.26c13.43,4.07,53.81,8.99,59.53,7.33V24.61c-12.2.53-23.9,2.68-35.4,5.91-1.05.29-1.96,2-2.44,3.25-3.79,9.92-7.78,19.78-11.09,29.86-3.84,11.7-7.05,23.61-10.6,35.64Zm83.86,8.86c20.02-2.56,39.47-5.05,59.06-7.55-.18-1.91-.12-2.72-.35-3.43-5.67-17.96-11.86-35.78-16.86-53.93-2.89-10.47-8.84-15.2-19.31-15.93-7.46-.52-14.85-1.99-22.54-3.07v83.92Zm-24.3,193.68c-20.18.86-39.73,3.1-59.1,7.66.16,1.08.18,1.76.37,2.38,6.26,19.44,12.76,38.81,18.7,58.35,1.95,6.41,5.38,9.55,12,10.35,9.28,1.12,18.47,2.91,28.03,4.47v-83.21Zm84.1,7.75c-20.33-4.58-39.86-7.02-59.67-7.7v83.51c11.82-2.25,23.16-4.34,34.44-6.67,1.2-.25,2.56-1.78,3.06-3.03,3.21-8.01,6.51-16,9.2-24.19,4.5-13.72,8.56-27.59,12.97-41.92Zm7.76-266.86c5.24,17.35,10.24,33.9,15.41,51.01,11.74-4.36,23.45-8.7,35.75-13.26-15.14-15.83-31.71-28.14-51.15-37.74ZM73.55,328.55c15.24,15.84,31.75,28.23,51.18,37.7-5.23-17.32-10.23-33.87-15.4-50.95-11.71,4.33-23.36,8.65-35.78,13.24Zm0-248.11c12.39,4.59,24.11,8.93,35.79,13.25,5.19-17.19,10.19-33.78,15.39-51.02-19.44,9.65-35.92,21.94-51.18,37.77Zm226.02,234.87c-5.19,17.18-10.19,33.74-15.39,50.97,19.46-9.55,36.01-21.95,51.15-37.73-12.38-4.58-24.12-8.92-35.77-13.23Z"/>
</svg>