<svg enable-background="new 0 0 512 512" viewBox="0 0 512 512" xmlns="http://www.w3.org/2000/svg"><g fill="#fff"><path d="m373.4 0h-234.8c-76.4 0-138.6 62.2-138.6 138.6v234.8c0 76.4 62.2 138.6 138.6 138.6h234.8c76.4 0 138.6-62.2 138.6-138.6v-234.8c0-76.4-62.2-138.6-138.6-138.6zm-117.4 396c-77.2 0-140-62.8-140-140s62.8-140 140-140 140 62.8 140 140-62.8 140-140 140zm143.3-247c-22.8 0-41.4-18.6-41.4-41.4s18.6-41.4 41.4-41.4 41.4 18.6 41.4 41.4-18.5 41.4-41.4 41.4z"/><path d="m256 146c-60.6 0-110 49.3-110 110 0 60.6 49.3 110 110 110 60.6 0 110-49.3 110-110 0-60.6-49.4-110-110-110z"/><path d="m399.3 96.3c-6.3 0-11.4 5.1-11.4 11.4s5.1 11.4 11.4 11.4 11.4-5.1 11.4-11.4-5.1-11.4-11.4-11.4z"/></g></svg>