<svg viewBox="0 0 47.15 47.14" xmlns="http://www.w3.org/2000/svg"><path d="m47.25 2.77v41.71c-.07 0-.09.07-.11.13a3.4 3.4 0 0 1 -3.64 2.54h-39.68a3.42 3.42 0 0 1 -3.72-3.72v-39.94a3.4 3.4 0 0 1 2.37-3.32c.1 0 .26 0 .3-.16h41.63s.05.08.08.09a3.3 3.3 0 0 1 2.64 2.36c.03.11-.03.26.13.31zm-21.41 17.89h-.1c0-.65 0-1.29 0-1.93 0-.26-.08-.34-.34-.34-1.69 0-3.38 0-5.06 0-.3 0-.36.09-.35.36.07 5.53 0 11.05 0 16.57 0 .28.06.36.35.36h5c.35 0 .39-.12.39-.42 0-1.55 0-3.1 0-4.65 0-1.71 0-3.43 0-5.15a3 3 0 0 1 1.45-2.46 2.79 2.79 0 0 1 4.36 1.5 6.42 6.42 0 0 1 .24 2v8.74c0 .33.09.4.41.4q2.46 0 4.92 0c.35 0 .43-.08.43-.42 0-3.12 0-6.23 0-9.35a13.56 13.56 0 0 0 -.12-2c-.47-3.09-2.21-5.51-5.67-5.86a5.78 5.78 0 0 0 -5.63 2.3c-.12.11-.19.23-.28.35zm-9 6.4q0-4.15 0-8.29c0-.31-.07-.42-.4-.41-1.66 0-3.32 0-5 0-.34 0-.4.1-.4.41q0 8.24 0 16.47c0 .32.07.42.4.41q2.46 0 4.92 0c.37 0 .45-.09.45-.45q.01-4.08.02-8.14zm-2.84-17.01a3.16 3.16 0 0 0 -2.95 1.6 3 3 0 0 0 2.21 4.35 3.31 3.31 0 0 0 3.6-1.51 3 3 0 0 0 -2.86-4.44z" fill="#fff" transform="translate(-.1 -.01)"/></svg>