<svg enable-background="new 0 0 326.6 326.6" viewBox="0 0 326.6 326.6" xmlns="http://www.w3.org/2000/svg" xmlns:xlink="http://www.w3.org/1999/xlink"><defs><path id="a" d="m108.7 240.6v-32.5l54.2 54.6 54.3-54.3.3 32.1-54.5 54.5zm143.9-121.7 43.2 43.2-43.2 43.2zm-222.6 43.2 43.4-43.4v86.8zm43.8-43.8 89.1-89.1 89.1 89.1-89.3 88.9zm88.4-118.3c-4.2 0-9 1.6-13.7 6.4l-142.1 142.1s-6.3 6.3-6.4 14.8v.2c0 4.2 1.6 9 6.4 13.7l143 143s6.3 6.3 14.8 6.4h.2c4.2 0 9-1.6 13.7-6.4l142.1-142.2s6.3-6.3 6.4-14.8v-.2c0-4.2-1.6-9-6.4-13.7l-143-143s-6.3-6.3-14.8-6.4c0 .1-.2.1-.2.1z"/><clipPath id="b"><use xlink:href="#a"/></clipPath></defs><path d="m108.7 240.6v-32.5l54.2 54.6 54.3-54.3.3 32.1-54.5 54.5zm143.9-121.7 43.2 43.2-43.2 43.2zm-222.6 43.2 43.4-43.4v86.8zm43.8-43.8 89.1-89.1 89.1 89.1-89.3 88.9zm88.4-118.3c-4.2 0-9 1.6-13.7 6.4l-142.1 142.1s-6.3 6.3-6.4 14.8v.2c0 4.2 1.6 9 6.4 13.7l143 143s6.3 6.3 14.8 6.4h.2c4.2 0 9-1.6 13.7-6.4l142.1-142.2s6.3-6.3 6.4-14.8v-.2c0-4.2-1.6-9-6.4-13.7l-143-143s-6.3-6.3-14.8-6.4c0 .1-.2.1-.2.1z"/><use xlink:href="#a"/><g clip-path="url(#b)"><path d="m15.3 15.3h296v296h-296z" transform="matrix(.5 -.866 .866 .5 -59.7832 223.0508)"/></g></svg>