<svg viewBox="0 0 383.63 384" xmlns="http://www.w3.org/2000/svg"><g fill="#4977dd" transform="translate(-492.12 -192.75)"><path d="m875.75 277.5v214.5c-.19 1-.4 1.95-.57 2.93-5.26 30.9-21.34 54.33-48.44 70.07-11 6.4-23.08 9.77-35.58 11.75h-214.08a16.33 16.33 0 0 0 -1.8-.45 96 96 0 0 1 -83.06-95.42c-.05-64.21-.23-128.43.08-192.65.16-34.58 15.56-61.34 44-80.59 12.3-8.32 26.18-12.64 40.75-14.89h214.11c.6.15 1.2.36 1.8.45 29.69 4.5 52.59 19.5 68.78 44.78 7.72 12.02 11.85 25.45 14.01 39.52zm-191.62-52.26q-47.16 0-94.32 0a62 62 0 0 0 -7.47.19c-34.31 4.28-57.41 30.47-57.42 65.09q0 94.31 0 188.62a80.23 80.23 0 0 0 .66 10.83c4.13 30.25 31 54.19 61.42 54.25q97.13.16 194.24 0a53.91 53.91 0 0 0 10.76-1.2c30.33-6.15 51.29-31.73 51.31-62.8q.08-95.61 0-191.24a55.42 55.42 0 0 0 -.13-5.62c-3.52-34-30.23-58.13-64.38-58.17q-47.33.01-94.67.05z"/><path d="m684.07 368.15h75.93a35 35 0 0 1 7.44.6 16.38 16.38 0 0 1 -.11 32 35.54 35.54 0 0 1 -6.68.6q-76.49 0-153 0a34 34 0 0 1 -7-.65 16.39 16.39 0 0 1 .09-31.91 34.42 34.42 0 0 1 7.44-.62z"/></g></svg>