<?xml version="1.0" encoding="UTF-8"?>
<svg id="Ebene_1" data-name="Ebene 1" xmlns="http://www.w3.org/2000/svg" viewBox="0 0 448.46 448.53">
  <defs>
    <style>
      .cls-1 {
        fill: #4977dd;
      }
    </style>
  </defs>
  <path class="cls-1" d="m264.67,0c-.06.87-.16,1.75-.16,2.62,0,57.12-.02,114.24,0,171.35,0,7.74,2.67,10.27,10.72,10.27,55.94.01,111.88,0,167.82,0,1.72,0,3.44,0,5.41,0v80.3c-1.77,0-3.59,0-5.42,0-55.65,0-111.3,0-166.94.02-2.17,0-4.53-.14-6.48.61-4.55,1.73-5.16,5.71-5.15,10.09.07,38.27.04,76.55.04,114.82,0,17.82,0,35.64,0,53.47v4.97h-80.29v-5.4c0-55.22,0-110.44,0-165.66,0-1.46.04-2.92-.03-4.38-.26-5.42-3.08-8.37-8.49-8.48-6.86-.15-13.73-.05-20.59-.05-49.95,0-99.9,0-149.85,0-1.75,0-3.5.11-5.24.16v-80.64c9.05.06,18.1.16,27.15.16,48.78.02,97.56,0,146.34.04,4.17,0,8.1-.43,9.89-4.76.8-1.93.8-4.27.8-6.43.04-56.38.03-112.77.02-169.15,0-1.31-.11-2.62-.16-3.93,26.88,0,53.75,0,80.63,0Z"/>
</svg>