<svg viewBox="0 0 640 448.1" xmlns="http://www.w3.org/2000/svg"><path d="m989.55 230.57a80.18 80.18 0 0 0 -56.41-56.42c-50.08-13.7-250.41-13.7-250.41-13.7s-200.32 0-250.41 13.18c-26.88 7.38-49 29.52-56.4 56.94-13.18 50.07-13.18 153.93-13.18 153.93s0 104.38 13.18 153.93a80.17 80.17 0 0 0 56.41 56.41c50.6 13.71 250.41 13.71 250.41 13.71s200.32 0 250.4-13.18a80.18 80.18 0 0 0 56.42-56.37c13.17-50.08 13.17-153.93 13.17-153.93s.53-104.43-13.18-154.5zm-370.55 249.88v-191.9l166.54 95.95z" fill="#fff" transform="translate(-362.74 -160.45)"/></svg>